<svg id="Capa_1" data-name="Capa 1" xmlns="http://www.w3.org/2000/svg" viewBox="0 0 331.27 101.48"><defs><style>.cls-1{fill:#647125;}.cls-2{fill:#9da462;}</style></defs><title>Logo Esquel vectorizado</title><path class="cls-1" d="M89.4,95c-.31-1.2-2.58-.18-3.26,0a59.08,59.08,0,0,1-20.66,1,78.33,78.33,0,0,1-22.3-6.07,63,63,0,0,1-6.91-3.75,47.57,47.57,0,0,1-7.46-5.3A41.78,41.78,0,0,1,18.14,65.52a40.14,40.14,0,0,1-2.36-12.79c-.29-18.7,13.12-34.07,30-34.36,6.13-.11,12.67,1.69,17.09,6.14a30,30,0,0,1,4.68,6.11c1.71,3.14,2.29,7.52-.85,10-6.22,4.85-20.23-.54-12.47-8.91,1.45-1.53,3.84-2.89,3.39-5.33-.38-2.13-3-3.29-4.86-3.1-3.84.39-8,4.55-10.86,7.68a22.34,22.34,0,0,0-2.74,3.69,15.47,15.47,0,0,0-1.76,4.93c-1,6.33,5,8.21,10,8.88a101.37,101.37,0,0,0,17.5.75C72.27,48.87,88,48,84.23,36A22.3,22.3,0,0,0,80.16,29c-8.67-10.54-20-17.52-34-17.25-29.1.51-57.36,29.52-41.74,58.44C17.32,94,47,104.58,72.92,100.71c2.59-.38,5.16-.72,7.72-1.3a42,42,0,0,0,6.42-2.22c.7-.29,2.53-1.15,2.34-2.14Z"/><path class="cls-2" d="M32.75,6.5c.31,1.16,2.58.16,3.25,0a60.17,60.17,0,0,1,20.68-1A78.29,78.29,0,0,1,79,11.58a59.76,59.76,0,0,1,6.9,3.76,46,46,0,0,1,7.45,5.3A41.5,41.5,0,0,1,104,36a39.5,39.5,0,0,1,2.36,12.81c.31,18.7-13.1,34.08-30,34.34-6.14.11-12.68-1.67-17.07-6.11a28.92,28.92,0,0,1-4.68-6.14c-1.73-3.14-2.31-7.49.83-10,6.23-4.83,20.26.55,12.47,8.93-1.43,1.54-3.83,2.86-3.39,5.33.38,2.11,2.95,3.27,4.86,3.09,3.85-.38,8.06-4.56,10.86-7.66A22.69,22.69,0,0,0,83,66.89,15.56,15.56,0,0,0,84.76,62c1-6.32-5.05-8.21-10-8.9a102.12,102.12,0,0,0-17.49-.72c-7.36.3-23,1.22-19.31,13.13a22.56,22.56,0,0,0,4.08,7C50.64,83.06,62,90,76,89.79c29.11-.52,57.36-29.54,41.72-58.45C104.8,7.54,75.19-3.1,49.24.78c-2.59.4-5.17.72-7.73,1.29A45,45,0,0,0,35.1,4.31c-.7.28-2.57,1.16-2.35,2.12Z"/><path class="cls-1" d="M264,54.31c0,4.06-.52,7.24-2.74,9.46-2,2-5.4,3.51-10.17,3.51a12.68,12.68,0,0,1-9.36-3.71c-2-2-2.59-4-2.59-8.89V29.08h-6.23V56c0,11.81,8.9,17,18.05,17,12.91,0,19.27-7,19.27-17.6V29.08H264Zm18.48-1h17.73v-5.6H282.51V34.66h18.38V29.08h-24.6V72.42h25.16V66.83H282.51Zm29.18,13.48V29.08h-6.23V72.42h25.81V66.83ZM162.34,39.24c0-3.05,2.85-5.14,6.86-5.14,2.93,0,6.46,1,10.16,4.5v-7a17.33,17.33,0,0,0-9.66-3.05c-7.94,0-13.15,4.52-13.15,11.58C156.55,52,175.3,53,175.3,61.93c0,2.41-2.22,5.46-7,5.46-4.27,0-8.28-2.21-11.44-6.29V69A19.09,19.09,0,0,0,169,73c7,0,12.12-5,12.12-11.76C181.07,47.44,162.34,47.56,162.34,39.24ZM134.49,53.35h17.72v-5.6H134.49V34.66h18.37V29.08H128.28V72.42h25.15V66.83H134.49Zm85.24,8.2-3.21-5h-6.25l5.39,8.41a17.59,17.59,0,0,1-9,2.35c-9.66,0-16.85-7.07-16.85-16.55S197,34.22,206.7,34.22s16.9,7,16.9,16.51A16.44,16.44,0,0,1,219.73,61.55ZM230,50.73c0-12.06-9-22.23-23.32-22.23-14.06,0-23.27,10.24-23.27,22.23,0,11.79,9,22.25,23.13,22.25a25,25,0,0,0,12.33-3l1.85,2.89H227l-3.83-6A22,22,0,0,0,230,50.73Z"/></svg>